<svg width="39" height="40" viewBox="0 0 39 40" fill="none" xmlns="http://www.w3.org/2000/svg">
<g clip-path="url(#clip0_1113_145)">
<path d="M31.6875 2.6875V0.25H7.3125V2.6875H0V11.2188C0 18.1281 5.25466 23.8304 11.9771 24.5464C13.4269 26.758 15.1529 28.3061 17.0625 29.0302V31.9375C17.0625 33.2836 15.9712 34.375 14.625 34.375C11.9327 34.375 9.75 36.5575 9.75 39.25H29.25C29.25 36.5575 27.0673 34.375 24.375 34.375C23.0288 34.375 21.9375 33.2836 21.9375 31.9375V29.0459C23.8512 28.3284 25.572 26.7594 27.0229 24.5464C33.7453 23.8304 39 18.1281 39 11.2188V2.6875H31.6875ZM4.875 11.2188V7.5625H7.37007C7.55634 11.6746 8.21525 15.4214 9.23911 18.6166C6.64822 17.1506 4.87499 14.4016 4.87499 11.2188H4.875ZM9.75 5.125V2.6875H12.1875V5.125C12.1875 16.3099 15.9104 25.5209 20.7188 26.8731C20.3187 26.9856 19.9137 27.0625 19.5 27.0625C14.1151 27.0625 9.75 17.2406 9.75 5.12499V5.125ZM34.125 11.2188C34.125 14.4016 32.3518 17.1506 29.7609 18.6166C30.7847 15.4214 31.4436 11.6746 31.6299 7.5625H34.125V11.2188H34.125Z" fill="white"/>
</g>
<defs>
<clipPath id="clip0_1113_145">
<rect width="39" height="39" fill="white" transform="translate(0 0.25)"/>
</clipPath>
</defs>
</svg>
