<svg width="51" height="32" viewBox="0 0 51 32" fill="none" xmlns="http://www.w3.org/2000/svg">
<path d="M50.4789 27.839L50.3599 24.1041C50.351 23.7925 50.2807 23.4857 50.153 23.2013C50.0253 22.917 49.8427 22.6606 49.6158 22.4469C49.3888 22.2333 49.1219 22.0666 48.8304 21.9562C48.5389 21.8459 48.2285 21.7941 47.9169 21.804L47.41 21.819C46.4554 17.7266 44.3105 14.0084 41.2459 11.1331L41.2139 11.1031C39.3248 9.31803 37.1258 7.89263 34.7249 6.89702L41.274 6.69707C41.6496 7.66544 42.3556 8.46971 43.2672 8.96758C44.1787 9.46544 45.237 9.62479 46.2547 9.41741C47.2724 9.21003 48.184 8.64924 48.8281 7.8344C49.4721 7.01955 49.8073 6.00313 49.774 4.96501C49.7379 3.79741 49.2406 2.69174 48.3909 1.89006C47.9708 1.49188 47.4755 1.18156 46.9339 0.977221C46.3923 0.772884 45.8154 0.678581 45.237 0.699999C44.0709 0.733625 42.966 1.229 42.165 2.07707C41.7178 2.55388 41.381 3.12336 41.1789 3.74504L29.3879 4.09807L29.3749 3.69805C29.3661 3.38643 29.2959 3.07962 29.1683 2.79521C29.0406 2.5108 28.858 2.25439 28.631 2.0407C28.4041 1.82701 28.1372 1.66026 27.8456 1.54997C27.5541 1.43969 27.2435 1.388 26.9319 1.398L23.1579 1.5031C22.8469 1.51149 22.5407 1.58125 22.2569 1.70854C21.9731 1.83584 21.7173 2.01816 21.5042 2.2448C21.2911 2.47144 21.1251 2.73797 21.0156 3.0291C20.906 3.32024 20.8551 3.63021 20.8659 3.94109L20.879 4.34099L9.08795 4.69499C8.71237 3.72662 8.00634 2.92235 7.09479 2.42449C6.18323 1.92662 5.12486 1.76728 4.10712 1.97466C3.08938 2.18204 2.17783 2.74282 1.53375 3.55767C0.889682 4.37251 0.554684 5.38893 0.587953 6.42705C0.620216 7.4634 1.01744 8.45504 1.70954 9.2271C2.40163 9.99915 3.34411 10.502 4.37079 10.6469C5.39747 10.7918 6.44234 10.5695 7.32111 10.0192C8.19987 9.4689 8.85602 8.62601 9.17389 7.63909L15.723 7.43901C12.6703 8.93362 10.0164 11.1323 7.98017 13.8538C5.94388 16.5753 4.58339 19.7417 4.01093 23.0921L3.38092 23.111C2.75182 23.1311 2.15646 23.4 1.72528 23.8586C1.29411 24.3171 1.0624 24.9279 1.08099 25.5571L1.19989 29.3071C1.20868 29.6187 1.27891 29.9255 1.40656 30.2099C1.53421 30.4943 1.71681 30.7507 1.94379 30.9644C2.17077 31.1781 2.43773 31.3448 2.72931 31.4551C3.02089 31.5654 3.3313 31.6171 3.64288 31.6071L7.39398 31.495C8.023 31.4747 8.61826 31.2057 9.04938 30.7472C9.4805 30.2888 9.71224 29.6781 9.69391 29.049L9.57489 25.298C9.56623 24.9864 9.49607 24.6795 9.36847 24.3951C9.24087 24.1106 9.05836 23.8541 8.83136 23.6404C8.60436 23.4267 8.33736 23.2599 8.04572 23.1497C7.75408 23.0395 7.44351 22.988 7.1319 22.9981H7.02399C7.74748 19.4854 9.4749 16.258 11.9968 13.7079C14.5186 11.1578 17.7264 9.39454 21.2309 8.63201C21.355 8.89917 21.5299 9.13965 21.7459 9.34001C21.973 9.55378 22.2401 9.72056 22.5318 9.83074C22.8236 9.94091 23.1343 9.99241 23.446 9.9821L27.197 9.87004C27.656 9.8555 28.101 9.70787 28.4777 9.44512C28.8545 9.18237 29.1467 8.81584 29.3189 8.39006C32.8684 8.94086 36.1826 10.5077 38.8609 12.9012C41.5392 15.2947 43.4672 18.4126 44.4119 21.8781L44.181 21.8851C43.552 21.9054 42.9567 22.1744 42.5256 22.6329C42.0945 23.0913 41.8626 23.702 41.8809 24.3311L41.9999 28.0811C42.0087 28.3927 42.079 28.6995 42.2066 28.9839C42.3343 29.2683 42.5169 29.5248 42.7438 29.7385C42.9708 29.9521 43.2377 30.1189 43.5292 30.2292C43.8208 30.3395 44.1314 30.391 44.4429 30.381L48.1939 30.2691C48.5037 30.2602 48.8087 30.1901 49.0914 30.063C49.374 29.936 49.6288 29.7544 49.8411 29.5286C50.0534 29.3028 50.219 29.0374 50.3284 28.7475C50.4379 28.4575 50.4891 28.1488 50.4789 27.839ZM6.72589 28.5971L4.09699 28.6761L4.01288 26.047L6.64191 25.9681L6.72589 28.5971ZM45.3089 3.63701C45.5966 3.62884 45.8803 3.70619 46.1241 3.85918C46.3679 4.01216 46.561 4.23401 46.6788 4.49663C46.7966 4.75925 46.8338 5.05082 46.7859 5.33464C46.7381 5.61846 46.6072 5.88179 46.4097 6.09123C46.2123 6.30068 45.9572 6.44687 45.6767 6.5114C45.3962 6.57594 45.1029 6.55589 44.8338 6.45378C44.5647 6.35168 44.3318 6.17215 44.1647 5.93779C43.9976 5.70343 43.9038 5.42471 43.895 5.13701C43.8896 4.94553 43.9221 4.75493 43.9908 4.5761C44.0594 4.39726 44.1629 4.23373 44.295 4.09502C44.56 3.81557 44.924 3.65114 45.3089 3.63701ZM5.02594 7.77507C4.73823 7.78324 4.45456 7.70589 4.21076 7.5529C3.96695 7.39992 3.77399 7.1782 3.65619 6.91558C3.53839 6.65295 3.50101 6.36126 3.54889 6.07744C3.59677 5.79362 3.72768 5.53029 3.92511 5.32085C4.12255 5.11141 4.37764 4.96522 4.65814 4.90068C4.93865 4.83615 5.23205 4.8562 5.50116 4.9583C5.77027 5.0604 6.00301 5.24005 6.17011 5.47441C6.3372 5.70877 6.43107 5.98738 6.43988 6.27507C6.44575 6.46659 6.41386 6.65733 6.34589 6.83647C6.27791 7.01562 6.1752 7.17959 6.04376 7.31902C5.91233 7.45844 5.75473 7.57068 5.5799 7.6491C5.40507 7.72751 5.2165 7.77062 5.02496 7.77605L5.02594 7.77507ZM23.899 7.05608L23.8149 4.42705L26.4439 4.34807L26.4859 5.65508L26.5279 6.96208L23.899 7.05608ZM44.905 27.444L44.821 24.815L47.4499 24.7371L47.534 27.366L44.905 27.444Z" fill="white"/>
</svg>
