<svg width="50" height="51" viewBox="0 0 50 51" fill="none" xmlns="http://www.w3.org/2000/svg">
<g clip-path="url(#clip0_1113_123)">
<path d="M50 19.0002L48.3093 20.6909C47.3594 21.6409 46.2623 22.4315 45.0607 23.0323L41.4877 24.8189L25.4313 8.76251L27.2179 5.18952C27.8187 3.98791 28.6095 2.89102 29.5594 1.94091L31.2501 0.250229C31.2501 0.250126 50 19.0002 50 19.0002Z" fill="white"/>
<path d="M37.259 29.4279C33.3344 35.624 34.3751 40.875 34.3751 40.875L5.34058e-05 50.25L9.37502 15.875C9.37502 15.875 14.6261 16.9157 20.8222 12.9911C20.8223 12.9911 37.259 29.4279 37.259 29.4279ZM12.5001 33.0625C12.5001 35.6513 14.5988 37.75 17.1876 37.75C19.7764 37.75 21.875 35.6513 21.875 33.0625C21.875 30.4737 19.7764 28.375 17.1876 28.375C14.5988 28.375 12.5001 30.4737 12.5001 33.0625Z" fill="white"/>
</g>
<defs>
<clipPath id="clip0_1113_123">
<rect width="50" height="50" fill="white" transform="matrix(0 -1 -1 0 50 50.25)"/>
</clipPath>
</defs>
</svg>
